<svg id="Layer_1" data-name="Layer 1" xmlns="http://www.w3.org/2000/svg" xmlns:xlink="http://www.w3.org/1999/xlink" viewBox="0 0 1235 313"><defs><clipPath id="clip-path"><rect width="1235" height="313" fill="none"/></clipPath><clipPath id="clip-path-2"><rect width="313" height="313" fill="none"/></clipPath></defs><g clip-path="url(#clip-path)"><path d="M331.85,188.71a19.85,19.85,0,0,1-8,7.7,27.29,27.29,0,0,1-13.31,3,32,32,0,0,1-13.7-2.8,24.35,24.35,0,0,1-9.57-7.7,21.79,21.79,0,0,1-4.12-11.17h10.67a15.11,15.11,0,0,0,7.75,11.61,17.25,17.25,0,0,0,8.64,2q6.6,0,10.12-3.52a12.22,12.22,0,0,0,3.52-9,11.63,11.63,0,0,0-2.48-7.7,17.42,17.42,0,0,0-6.1-4.67,82.28,82.28,0,0,0-9.9-3.69,99.31,99.31,0,0,1-11.83-4.56,20.2,20.2,0,0,1-7.59-6.44q-3.14-4.29-3.13-11.33a19.6,19.6,0,0,1,2.91-10.67,19.11,19.11,0,0,1,8.36-7.15,30.26,30.26,0,0,1,12.82-2.53q11.43,0,18.15,5.56a21.28,21.28,0,0,1,7.81,14.13H322.06a14.65,14.65,0,0,0-4.73-8.14q-3.85-3.51-10.45-3.52-6.06,0-9.68,3.14t-3.63,8.85a11,11,0,0,0,2.36,7.32,16.56,16.56,0,0,0,5.89,4.4,94.8,94.8,0,0,0,9.68,3.57,100.5,100.5,0,0,1,12,4.62,20.45,20.45,0,0,1,7.76,6.66q3.18,4.46,3.19,11.82A20.63,20.63,0,0,1,331.85,188.71Z" fill="#383838"/><path d="M387.56,141.85a23,23,0,0,1,8.53,11.77v-15.4h10v60.39h-10v-15.4A22.94,22.94,0,0,1,387.56,195a24.78,24.78,0,0,1-14.91,4.4,27.28,27.28,0,0,1-14.29-3.74,25.8,25.8,0,0,1-9.85-10.72,35.72,35.72,0,0,1-3.57-16.45,36.08,36.08,0,0,1,3.57-16.5,25.78,25.78,0,0,1,9.85-10.78,27.38,27.38,0,0,1,14.29-3.74A24.85,24.85,0,0,1,387.56,141.85Zm-26.84,10.4q-5.55,5.88-5.55,16.22t5.55,16.23q5.55,5.88,14.8,5.88a20.47,20.47,0,0,0,10.61-2.75,19.14,19.14,0,0,0,7.32-7.75,24.54,24.54,0,0,0,2.64-11.61,24.86,24.86,0,0,0-2.64-11.66,18.65,18.65,0,0,0-7.32-7.75,20.83,20.83,0,0,0-10.61-2.7Q366.28,146.36,360.72,152.25Z" fill="#383838"/><path d="M432.05,117.21v81.4h-10v-81.4Z" fill="#383838"/><path d="M491.07,141.19A26.83,26.83,0,0,1,501.85,152a36.75,36.75,0,0,1,0,32.95,26.86,26.86,0,0,1-10.78,10.72,34.26,34.26,0,0,1-31.13,0,27.26,27.26,0,0,1-10.84-10.72,36.25,36.25,0,0,1,0-32.95,27.22,27.22,0,0,1,10.84-10.78,34.26,34.26,0,0,1,31.13,0Zm-25.52,7.48a18.25,18.25,0,0,0-7.37,7.43,28.41,28.41,0,0,0,0,24.64,18.22,18.22,0,0,0,7.37,7.42,21.69,21.69,0,0,0,19.91,0,18.22,18.22,0,0,0,7.37-7.42,28.5,28.5,0,0,0,0-24.64,18.25,18.25,0,0,0-7.37-7.43,21.69,21.69,0,0,0-19.91,0Z" fill="#383838"/><path d="M567.68,144q6.5,6.76,6.49,19.52v35.09h-10V164.4q0-9-4.62-13.86T547,145.7q-8.25,0-13.2,5.34t-4.95,15.56v32h-10V138.22h10v14.3a20.61,20.61,0,0,1,8.2-11.33,23.74,23.74,0,0,1,13.58-4Q561.19,137.23,567.68,144Z" fill="#383838"/><path d="M604.09,133.27V153.4h27.5v11.88h-27.5v20.9h30.8v12.43H588.58V121h46.31v12.32Z" fill="#383838"/><path d="M672.84,183.1l15.4-45.43h16.5l-22.55,60.94H663.27l-22.55-60.94h16.61Z" fill="#383838"/><path d="M770.08,171.11H725.42q.33,8.14,4.4,12A14.14,14.14,0,0,0,739.94,187a14.72,14.72,0,0,0,9-2.64,11.69,11.69,0,0,0,4.56-7.15h16.39a26.21,26.21,0,0,1-5.17,11.44,26.89,26.89,0,0,1-10.17,7.92,34.89,34.89,0,0,1-29.65-.93,26.67,26.67,0,0,1-10.78-10.84,34.06,34.06,0,0,1-3.85-16.61,34.37,34.37,0,0,1,3.85-16.66,26.31,26.31,0,0,1,10.78-10.84,32.86,32.86,0,0,1,15.84-3.74,32.17,32.17,0,0,1,15.79,3.74A26.39,26.39,0,0,1,767,150.93a29.9,29.9,0,0,1,3.68,14.9A29.06,29.06,0,0,1,770.08,171.11Zm-19-18.15a14.94,14.94,0,0,0-10.4-3.85A15.27,15.27,0,0,0,730.15,153q-4.29,3.85-4.73,11.33H755Q755.34,156.82,751.11,153Z" fill="#383838"/><path d="M806.16,140.15a23.94,23.94,0,0,1,12.54-3.36V153.4h-4.51q-17.06,0-17.05,15.84v29.37H781.63V137.67h15.51v11.66A25.45,25.45,0,0,1,806.16,140.15Z" fill="#383838"/><path d="M837.73,137.67,854.34,179l15.4-41.36h17l-37.29,90H832.34l13.75-30.8-25.63-59.18Z" fill="#383838"/><path d="M981.28,137.67l-16.39,60.94H947.73l-13.09-44.33-13.42,44.33H904.06l-16.28-60.94h15.51l9.9,47.08,13.53-47.08h16.39l13.64,47.08,10-47.08Z" fill="#383838"/><path d="M1042.11,143.72q6.27,6.93,6.27,19.47v35.42H1033V165q0-7.26-3.74-11.27t-10.23-4a13.68,13.68,0,0,0-10.56,4.29q-4,4.29-4,12.32v32.34H989v-81.4h15.51v32.67a19.42,19.42,0,0,1,8-9.62,23.72,23.72,0,0,1,12.82-3.47Q1035.84,136.79,1042.11,143.72Z" fill="#383838"/><path d="M1118.78,171.11h-44.66q.33,8.14,4.4,12a14.13,14.13,0,0,0,10.12,3.85,14.67,14.67,0,0,0,9-2.64,11.71,11.71,0,0,0,4.57-7.15h16.39a26.21,26.21,0,0,1-5.17,11.44,26.93,26.93,0,0,1-10.18,7.92,34.87,34.87,0,0,1-29.64-.93,26.61,26.61,0,0,1-10.78-10.84,34.06,34.06,0,0,1-3.85-16.61,34.37,34.37,0,0,1,3.85-16.66,26.25,26.25,0,0,1,10.78-10.84,32.86,32.86,0,0,1,15.84-3.74,32.13,32.13,0,0,1,15.78,3.74,26.39,26.39,0,0,1,10.45,10.29,30.06,30.06,0,0,1,3.14,20.18Zm-19-18.15a14.91,14.91,0,0,0-10.39-3.85,15.27,15.27,0,0,0-10.56,3.85q-4.29,3.85-4.73,11.33h29.59Q1104,156.82,1099.8,153Z" fill="#383838"/><path d="M1154.85,140.15a23.94,23.94,0,0,1,12.54-3.36V153.4h-4.51q-17,0-17.05,15.84v29.37h-15.51V137.67h15.51v11.66A25.53,25.53,0,0,1,1154.85,140.15Z" fill="#383838"/><path d="M1232.73,171.11h-44.66q.33,8.14,4.4,12a14.16,14.16,0,0,0,10.12,3.85,14.7,14.7,0,0,0,9-2.64,11.69,11.69,0,0,0,4.56-7.15h16.39a26.09,26.09,0,0,1-5.17,11.44,26.89,26.89,0,0,1-10.17,7.92,34.89,34.89,0,0,1-29.65-.93,26.67,26.67,0,0,1-10.78-10.84,37.86,37.86,0,0,1,0-33.27,26.31,26.31,0,0,1,10.78-10.84,32.86,32.86,0,0,1,15.84-3.74,32.14,32.14,0,0,1,15.79,3.74,26.39,26.39,0,0,1,10.45,10.29,29.9,29.9,0,0,1,3.68,14.9A29.06,29.06,0,0,1,1232.73,171.11Zm-19-18.15a14.94,14.94,0,0,0-10.4-3.85A15.27,15.27,0,0,0,1192.8,153q-4.29,3.85-4.73,11.33h29.59Q1218,156.82,1213.76,153Z" fill="#383838"/><g clip-path="url(#clip-path-2)"><path d="M21.43,183.72a3.55,3.55,0,0,0,3.72-.31L41.59,171.2,61,177.81a3.55,3.55,0,0,0,4.5-4.48l-6.54-19.4,12.27-16.39a3.54,3.54,0,0,0-2.87-5.66l-20.47.23L36.06,115.37a3.54,3.54,0,0,0-6.27,1l-6.11,19.54-19.57,6a3.54,3.54,0,0,0-1,6.27l16.7,11.85-.3,20.47a3.52,3.52,0,0,0,1.92,3.2Zm0,0" fill="#db2827"/><path d="M101.47,240a3.54,3.54,0,0,0-1.61-3.38L82.64,225.52,82,205.06a3.54,3.54,0,0,0-5.77-2.63l-15.85,13L40.7,209.7a3.53,3.53,0,0,0-4.28,4.68l7.43,19.07L32.36,250.39a3.53,3.53,0,0,0,3.13,5.52l20.43-1.18L68.48,270.9a3.52,3.52,0,0,0,3.5,1.3,3.56,3.56,0,0,0,2.72-2.57l5.19-19.8,19.26-6.94a3.55,3.55,0,0,0,2.32-2.93Zm0,0" fill="#db2827"/><path d="M166,41.77l11.59-18a3.7,3.7,0,0,0-3.42-5.69l-21.34,1.76L139.32,3.24a3.7,3.7,0,0,0-6.47,1.49l-4.93,20.84-20,7.76a3.7,3.7,0,0,0-.58,6.61l18.3,11.13,1.21,21.38a3.7,3.7,0,0,0,6.11,2.6l16.24-14,20.7,5.46a3.7,3.7,0,0,0,4.36-5Zm0,0" fill="#db2827"/><path d="M84.32,71.75l11.59-18a3.7,3.7,0,0,0-3.42-5.69L71.15,49.81,57.6,33.22a3.7,3.7,0,0,0-6.47,1.49L46.21,55.55l-20,7.76a3.7,3.7,0,0,0-.58,6.61L44,81l1.21,21.39A3.7,3.7,0,0,0,51.28,105l16.24-14,20.71,5.45a3.69,3.69,0,0,0,4.35-5Zm0,0" fill="#db2827"/><path d="M253.37,57.12l1.36-21.37A3.7,3.7,0,0,0,249,32.44L231.18,44.36l-19.91-7.89a3.69,3.69,0,0,0-4.92,4.45l5.84,20.6L198.53,78a3.69,3.69,0,0,0,2.71,6l21.4.81L234.11,103a3.7,3.7,0,0,0,6.6-.7l7.38-20.11,20.75-5.31a3.71,3.71,0,0,0,1.37-6.5Zm0,0" fill="#db2827"/><path d="M170.66,92.89a79.12,79.12,0,0,0-79,79c0,54.09,70.73,133.49,73.74,136.84a7.12,7.12,0,0,0,10.59,0c3-3.35,73.75-82.75,73.75-136.84A79.12,79.12,0,0,0,170.66,92.89Zm0,118.8a39.77,39.77,0,1,1,39.76-39.77A39.81,39.81,0,0,1,170.66,211.69Z" fill="#383838"/></g></g></svg>